<?xml version="1.0" encoding="UTF-8"?>
<svg xmlns="http://www.w3.org/2000/svg" xmlns:xlink="http://www.w3.org/1999/xlink" width="124" height="169" viewBox="0 0 124 169">
<path fill-rule="nonzero" fill="rgb(6.666565%, 53.33252%, 87.449646%)" fill-opacity="1" d="M 96.246094 138.066406 L 95.003906 138.066406 L 95.003906 135.367188 L 95.101562 135.367188 L 95.011719 133.238281 L 95.003906 133.085938 C 95.003906 130.414062 97.175781 128.242188 99.859375 128.242188 L 99.859375 124.152344 C 95.546875 124.152344 91.929688 127.21875 91.085938 131.277344 L 90.90625 131.277344 L 90.90625 138.066406 L 88.953125 138.066406 C 87.339844 138.066406 85.640625 139.3125 85.164062 140.84375 L 75.554688 171.675781 C 75.078125 173.207031 76 174.457031 77.605469 174.449219 L 96.9375 174.375 C 97.742188 174.375 98.800781 174.375 99.859375 174.375 L 99.859375 138.066406 C 99.484375 138.066406 97.859375 138.066406 96.246094 138.066406 "/>
<path fill-rule="nonzero" fill="rgb(6.666565%, 53.33252%, 87.449646%)" fill-opacity="1" d="M 122.652344 171.675781 L 113.042969 140.84375 C 112.566406 139.3125 110.867188 138.066406 109.257812 138.066406 L 107.300781 138.066406 L 107.300781 132.875 L 107.289062 131.277344 L 107.121094 131.277344 C 106.277344 127.21875 102.660156 124.152344 98.347656 124.152344 L 98.347656 128.242188 C 101.03125 128.242188 103.203125 130.414062 103.203125 133.070312 L 103.195312 133.277344 L 103.164062 135.367188 L 103.203125 135.367188 L 103.203125 138.066406 L 101.960938 138.066406 C 100.351562 138.066406 98.726562 138.066406 98.347656 138.066406 L 98.347656 174.375 C 99.402344 174.375 100.464844 174.375 101.269531 174.375 L 120.601562 174.449219 C 122.207031 174.457031 123.132812 173.207031 122.652344 171.675781 "/>
<path fill-rule="nonzero" fill="rgb(6.666565%, 53.33252%, 87.449646%)" fill-opacity="1" d="M 20.878906 114.835938 L 19.636719 114.835938 L 19.636719 112.132812 L 19.734375 112.132812 L 19.640625 110.003906 L 19.636719 109.855469 C 19.636719 107.183594 21.808594 105.011719 24.492188 105.011719 L 24.492188 100.917969 C 20.179688 100.917969 16.5625 103.984375 15.71875 108.042969 L 15.535156 108.042969 L 15.535156 114.835938 L 13.582031 114.835938 C 11.972656 114.835938 10.269531 116.078125 9.796875 117.609375 L 0.1875 148.441406 C -0.292969 149.972656 0.632812 151.226562 2.234375 151.214844 L 21.570312 151.144531 C 22.375 151.144531 23.433594 151.144531 24.492188 151.144531 L 24.492188 114.835938 C 24.113281 114.835938 22.492188 114.835938 20.878906 114.835938 "/>
<path fill-rule="nonzero" fill="rgb(6.666565%, 53.33252%, 87.449646%)" fill-opacity="1" d="M 47.285156 148.441406 L 37.675781 117.609375 C 37.199219 116.078125 35.5 114.835938 33.886719 114.835938 L 31.933594 114.835938 L 31.933594 109.855469 L 31.929688 109.644531 L 31.921875 108.042969 L 31.75 108.042969 C 30.90625 103.984375 27.289062 100.917969 22.980469 100.917969 L 22.980469 105.011719 C 25.664062 105.011719 27.835938 107.183594 27.835938 109.835938 L 27.828125 110.042969 L 27.796875 112.132812 L 27.835938 112.132812 L 27.835938 114.835938 L 26.59375 114.835938 C 24.980469 114.835938 23.355469 114.835938 22.980469 114.835938 L 22.980469 151.144531 C 24.035156 151.144531 25.09375 151.144531 25.902344 151.144531 L 45.234375 151.214844 C 46.835938 151.226562 47.761719 149.972656 47.285156 148.441406 "/>
<path fill="none" stroke-width="1.43255" stroke-linecap="butt" stroke-linejoin="round" stroke="rgb(6.666565%, 53.33252%, 87.449646%)" stroke-opacity="1" stroke-miterlimit="10" d="M 61.226562 -76.28458 C 40.398438 -76.28458 23.464844 -59.349427 23.464844 -38.520324 C 23.464844 -17.691222 40.398438 -0.759986 61.226562 -0.759986 C 82.054688 -0.759986 98.988281 -17.691222 98.988281 -38.520324 C 98.988281 -59.349427 82.054688 -76.28458 61.226562 -76.28458 Z M 61.226562 -76.28458 " transform="matrix(1, 0, 0, -0.99714, 0, 0)"/>
<path fill-rule="evenodd" fill="rgb(100%, 100%, 100%)" fill-opacity="1" d="M 18.128906 128.996094 L 16.609375 134.339844 C 17.328125 133.082031 17.902344 132.136719 18.386719 131.507812 C 19.160156 130.539062 19.90625 129.824219 20.621094 129.367188 C 21.050781 129.109375 21.480469 128.996094 21.96875 128.996094 C 22.371094 128.996094 22.714844 129.136719 22.972656 129.394531 C 23.230469 129.652344 23.34375 129.996094 23.34375 130.421875 C 23.34375 130.796875 23.257812 131.308594 23.058594 131.910156 L 22.140625 134.878906 C 23.515625 132.453125 24.804688 130.765625 26.039062 129.796875 C 26.726562 129.253906 27.382812 128.996094 28.042969 128.996094 C 28.414062 128.996094 28.730469 129.136719 28.988281 129.394531 C 29.246094 129.679688 29.359375 130.109375 29.359375 130.710938 C 29.359375 131.136719 29.273438 131.625 29.132812 132.136719 L 27.640625 136.679688 C 27.328125 137.679688 27.15625 138.222656 27.15625 138.308594 C 27.15625 138.421875 27.183594 138.507812 27.269531 138.59375 C 27.296875 138.652344 27.355469 138.679688 27.441406 138.679688 C 27.5 138.679688 27.613281 138.59375 27.8125 138.453125 C 28.214844 138.109375 28.585938 137.652344 28.929688 137.082031 L 29.332031 137.335938 C 29.132812 137.652344 28.816406 138.082031 28.328125 138.621094 C 27.84375 139.167969 27.441406 139.507812 27.097656 139.707031 C 26.753906 139.878906 26.4375 139.964844 26.152344 139.996094 C 25.894531 139.964844 25.664062 139.878906 25.492188 139.707031 C 25.292969 139.507812 25.207031 139.28125 25.207031 139.023438 C 25.207031 138.652344 25.40625 137.878906 25.78125 136.738281 L 27.011719 132.910156 C 27.296875 132.023438 27.441406 131.539062 27.46875 131.453125 C 27.5 131.308594 27.5 131.167969 27.5 131.023438 C 27.5 130.824219 27.441406 130.679688 27.355469 130.566406 C 27.269531 130.453125 27.15625 130.394531 27.011719 130.394531 C 26.667969 130.394531 26.296875 130.566406 25.867188 130.910156 C 24.691406 131.910156 23.601562 133.308594 22.570312 135.109375 C 21.882812 136.308594 21.253906 137.851562 20.652344 139.707031 L 18.902344 139.707031 L 21.050781 132.566406 C 21.308594 131.796875 21.425781 131.28125 21.425781 131.023438 C 21.425781 130.824219 21.394531 130.652344 21.308594 130.539062 C 21.222656 130.453125 21.109375 130.394531 20.964844 130.394531 C 20.707031 130.394531 20.421875 130.480469 20.105469 130.679688 C 19.621094 130.996094 19.019531 131.652344 18.246094 132.652344 C 17.472656 133.652344 16.898438 134.625 16.46875 135.539062 C 16.265625 135.964844 15.808594 137.367188 15.035156 139.707031 L 13.289062 139.707031 L 15.523438 132.023438 L 15.808594 131.023438 C 15.867188 130.878906 15.894531 130.765625 15.894531 130.679688 C 15.894531 130.507812 15.808594 130.367188 15.664062 130.222656 C 15.492188 130.082031 15.292969 130.023438 15.035156 130.023438 C 14.949219 130.023438 14.664062 130.082031 14.175781 130.167969 L 14.089844 129.738281 "/>
<path fill-rule="evenodd" fill="rgb(100%, 100%, 100%)" fill-opacity="1" d="M 32.027344 136.320312 L 34.261719 135.234375 L 34.488281 135.234375 L 34.488281 143.03125 C 34.488281 143.546875 34.519531 143.863281 34.574219 143.976562 C 34.605469 144.117188 34.691406 144.203125 34.832031 144.289062 C 34.976562 144.375 35.234375 144.40625 35.664062 144.40625 L 35.664062 144.660156 L 32.199219 144.660156 L 32.199219 144.40625 C 32.628906 144.40625 32.914062 144.375 33.058594 144.289062 C 33.171875 144.234375 33.257812 144.148438 33.316406 144.03125 C 33.34375 143.917969 33.371094 143.574219 33.371094 143.03125 L 33.371094 138.035156 C 33.371094 137.347656 33.34375 136.917969 33.316406 136.71875 C 33.285156 136.578125 33.230469 136.492188 33.144531 136.40625 C 33.058594 136.347656 32.941406 136.320312 32.828125 136.320312 C 32.65625 136.320312 32.425781 136.375 32.140625 136.519531 "/>
<path fill-rule="evenodd" fill="rgb(100%, 100%, 100%)" fill-opacity="1" stroke-width="0.100813" stroke-linecap="butt" stroke-linejoin="miter" stroke="rgb(6.666565%, 53.33252%, 87.449646%)" stroke-opacity="1" stroke-miterlimit="4" d="M 112.382812 166.872163 L 111.722656 168.672927 L 106.28125 168.672927 L 106.28125 168.418471 C 107.882812 166.958286 109.03125 165.752557 109.691406 164.809113 C 110.347656 163.865669 110.664062 163.035751 110.664062 162.260639 C 110.664062 161.689092 110.492188 161.203669 110.121094 160.827857 C 109.746094 160.45596 109.316406 160.283713 108.828125 160.283713 C 108.371094 160.283713 107.96875 160.428557 107.597656 160.686928 C 107.226562 160.945298 106.96875 161.344598 106.796875 161.861339 L 106.539062 161.861339 C 106.652344 161.031422 106.9375 160.369836 107.425781 159.911816 C 107.914062 159.453795 108.484375 159.226742 109.203125 159.226742 C 109.945312 159.226742 110.578125 159.453795 111.09375 159.943133 C 111.578125 160.428557 111.839844 160.972701 111.839844 161.630372 C 111.839844 162.11971 111.722656 162.57773 111.496094 163.035751 C 111.179688 163.779545 110.632812 164.550742 109.859375 165.38066 C 108.714844 166.613792 108 167.357586 107.742188 167.615957 L 110.148438 167.615957 C 110.632812 167.615957 110.980469 167.588554 111.179688 167.557236 C 111.378906 167.529833 111.550781 167.44371 111.722656 167.330183 C 111.867188 167.212742 112.011719 167.071813 112.125 166.872163 " transform="matrix(1, 0, 0, 0.99784, 0, 0)"/>
<path fill="none" stroke-width="1.43255" stroke-linecap="butt" stroke-linejoin="round" stroke="rgb(6.666565%, 53.33252%, 87.449646%)" stroke-opacity="1" stroke-miterlimit="10" d="M 23.464844 -38.520324 L 23.636719 -104.161182 " transform="matrix(1, 0, 0, -0.99714, 0, 0)"/>
<path fill="none" stroke-width="1.43255" stroke-linecap="butt" stroke-linejoin="round" stroke="rgb(6.666565%, 53.33252%, 87.449646%)" stroke-opacity="1" stroke-miterlimit="10" d="M 98.988281 -38.520324 L 98.988281 -128.026312 " transform="matrix(1, 0, 0, -0.99714, 0, 0)"/>
<path fill-rule="evenodd" fill="rgb(100%, 100%, 100%)" fill-opacity="1" d="M 93.5 152.226562 L 91.980469 157.570312 C 92.695312 156.3125 93.269531 155.371094 93.757812 154.742188 C 94.53125 153.769531 95.273438 153.054688 95.992188 152.597656 C 96.421875 152.34375 96.851562 152.226562 97.335938 152.226562 C 97.738281 152.226562 98.082031 152.371094 98.339844 152.628906 C 98.597656 152.886719 98.710938 153.226562 98.710938 153.65625 C 98.710938 154.027344 98.625 154.542969 98.425781 155.140625 L 97.507812 158.113281 C 98.882812 155.683594 100.175781 154 101.40625 153.027344 C 102.09375 152.484375 102.753906 152.226562 103.410156 152.226562 C 103.785156 152.226562 104.097656 152.371094 104.355469 152.628906 C 104.613281 152.914062 104.730469 153.34375 104.730469 153.941406 C 104.730469 154.371094 104.644531 154.855469 104.5 155.371094 L 103.011719 159.914062 C 102.695312 160.914062 102.523438 161.457031 102.523438 161.542969 C 102.523438 161.65625 102.550781 161.742188 102.636719 161.828125 C 102.667969 161.882812 102.722656 161.914062 102.808594 161.914062 C 102.867188 161.914062 102.980469 161.828125 103.183594 161.683594 C 103.582031 161.339844 103.957031 160.882812 104.300781 160.3125 L 104.699219 160.570312 C 104.5 160.882812 104.183594 161.3125 103.699219 161.855469 C 103.210938 162.398438 102.808594 162.742188 102.464844 162.941406 C 102.121094 163.113281 101.808594 163.199219 101.519531 163.226562 C 101.261719 163.199219 101.035156 163.113281 100.863281 162.941406 C 100.660156 162.742188 100.574219 162.511719 100.574219 162.253906 C 100.574219 161.882812 100.777344 161.113281 101.148438 159.96875 L 102.378906 156.140625 C 102.667969 155.257812 102.808594 154.769531 102.839844 154.683594 C 102.867188 154.542969 102.867188 154.398438 102.867188 154.257812 C 102.867188 154.054688 102.808594 153.914062 102.722656 153.800781 C 102.636719 153.683594 102.523438 153.628906 102.378906 153.628906 C 102.035156 153.628906 101.664062 153.800781 101.234375 154.140625 C 100.058594 155.140625 98.96875 156.542969 97.9375 158.34375 C 97.25 159.542969 96.621094 161.085938 96.019531 162.941406 L 94.273438 162.941406 L 96.421875 155.800781 C 96.679688 155.027344 96.792969 154.511719 96.792969 154.257812 C 96.792969 154.054688 96.765625 153.886719 96.679688 153.769531 C 96.59375 153.683594 96.476562 153.628906 96.335938 153.628906 C 96.078125 153.628906 95.789062 153.714844 95.476562 153.914062 C 94.988281 154.226562 94.386719 154.882812 93.613281 155.882812 C 92.839844 156.882812 92.265625 157.855469 91.835938 158.769531 C 91.636719 159.199219 91.175781 160.597656 90.402344 162.941406 L 88.65625 162.941406 L 90.890625 155.257812 L 91.175781 154.257812 C 91.234375 154.113281 91.261719 154 91.261719 153.914062 C 91.261719 153.742188 91.175781 153.597656 91.035156 153.457031 C 90.863281 153.3125 90.660156 153.257812 90.402344 153.257812 C 90.316406 153.257812 90.03125 153.3125 89.542969 153.398438 L 89.457031 152.96875 "/>
</svg>
