<?xml version="1.0" encoding="UTF-8" standalone="no"?>
<!-- Created with Inkscape (http://www.inkscape.org/) -->

<svg
   width="145.74864mm"
   height="65.646454mm"
   viewBox="0 0 145.749 65.646615"
   version="1.1"
   id="svg866"
   inkscape:export-filename="infinito.png"
   inkscape:export-xdpi="76.331413"
   inkscape:export-ydpi="76.331413"
   inkscape:version="1.2.1 (9c6d41e410, 2022-07-14, custom)"
   sodipodi:docname="infinito.svg"
   xmlns:inkscape="http://www.inkscape.org/namespaces/inkscape"
   xmlns:sodipodi="http://sodipodi.sourceforge.net/DTD/sodipodi-0.dtd"
   xmlns:xlink="http://www.w3.org/1999/xlink"
   xmlns="http://www.w3.org/2000/svg"
   xmlns:svg="http://www.w3.org/2000/svg">
  <sodipodi:namedview
     id="namedview868"
     pagecolor="#505050"
     bordercolor="#ffffff"
     borderopacity="1"
     inkscape:showpageshadow="0"
     inkscape:pageopacity="0"
     inkscape:pagecheckerboard="1"
     inkscape:deskcolor="#505050"
     inkscape:document-units="mm"
     showgrid="false"
     inkscape:zoom="0.914906"
     inkscape:cx="217.50868"
     inkscape:cy="-40.441313"
     inkscape:window-width="743"
     inkscape:window-height="1381"
     inkscape:window-x="0"
     inkscape:window-y="0"
     inkscape:window-maximized="1"
     inkscape:current-layer="layer1" />
  <defs
     id="defs863">
    <linearGradient
       x1="0"
       y1="0"
       x2="1"
       y2="0"
       gradientUnits="userSpaceOnUse"
       gradientTransform="matrix(156.70082,0,0,-156.70082,59.899967,230.02904)"
       spreadMethod="pad"
       id="linearGradient58">
      <stop
         style="stop-opacity:1;stop-color:#ffd000"
         offset="0"
         id="stop48" />
      <stop
         style="stop-opacity:1;stop-color:#ffd000"
         offset="0.08496236"
         id="stop50" />
      <stop
         style="stop-opacity:1;stop-color:#b1d007"
         offset="0.5"
         id="stop52" />
      <stop
         style="stop-opacity:1;stop-color:#1ba0de"
         offset="0.79275547"
         id="stop54" />
      <stop
         style="stop-opacity:1;stop-color:#1ba0de"
         offset="1"
         id="stop56" />
    </linearGradient>
    <linearGradient
       x1="0"
       y1="0"
       x2="1"
       y2="0"
       gradientUnits="userSpaceOnUse"
       gradientTransform="matrix(155.23532,0,0,-155.23532,60.535454,230.30037)"
       spreadMethod="pad"
       id="linearGradient88">
      <stop
         style="stop-opacity:1;stop-color:#ffd000"
         offset="0"
         id="stop74" />
      <stop
         style="stop-opacity:1;stop-color:#ffd000"
         offset="0.0486486"
         id="stop76" />
      <stop
         style="stop-opacity:1;stop-color:#ffd000"
         offset="0.1767819"
         id="stop78" />
      <stop
         style="stop-opacity:1;stop-color:#a2248f"
         offset="0.513514"
         id="stop80" />
      <stop
         style="stop-opacity:1;stop-color:#1ba0de"
         offset="0.81691443"
         id="stop82" />
      <stop
         style="stop-opacity:1;stop-color:#1ba0de"
         offset="0.940541"
         id="stop84" />
      <stop
         style="stop-opacity:1;stop-color:#1ba0de"
         offset="1"
         id="stop86" />
    </linearGradient>
    <linearGradient
       inkscape:collect="always"
       xlink:href="#linearGradient58"
       id="linearGradient1066"
       gradientUnits="userSpaceOnUse"
       gradientTransform="matrix(156.70082,0,0,-156.70082,59.899967,230.02904)"
       x1="0"
       y1="0"
       x2="1"
       y2="0"
       spreadMethod="pad" />
    <linearGradient
       inkscape:collect="always"
       xlink:href="#linearGradient88"
       id="linearGradient1068"
       gradientUnits="userSpaceOnUse"
       gradientTransform="matrix(155.23532,0,0,-155.23532,60.535454,230.30037)"
       x1="0"
       y1="0"
       x2="1"
       y2="0"
       spreadMethod="pad" />
    <linearGradient
       inkscape:collect="always"
       xlink:href="#linearGradient58"
       id="linearGradient1070"
       gradientUnits="userSpaceOnUse"
       gradientTransform="matrix(156.70082,0,0,-156.70082,59.899967,230.02904)"
       x1="0"
       y1="0"
       x2="1"
       y2="0"
       spreadMethod="pad" />
    <linearGradient
       inkscape:collect="always"
       xlink:href="#linearGradient88"
       id="linearGradient1072"
       gradientUnits="userSpaceOnUse"
       gradientTransform="matrix(155.23532,0,0,-155.23532,60.535454,230.30037)"
       x1="0"
       y1="0"
       x2="1"
       y2="0"
       spreadMethod="pad" />
  </defs>
  <g
     inkscape:label="Layer 1"
     inkscape:groupmode="layer"
     id="layer1"
     transform="translate(-47.429471,-159.48933)">
    <g
       id="g821"
       transform="matrix(0.35277777,0,0,-0.35277777,168.43457,269.50803)">
      <g
         id="g799"
         transform="matrix(2.6365288,0,0,2.6365288,-500.93496,-388.37165)">
        <g
           id="g36">
          <g
             id="g38">
            <g
               id="g44">
              <g
                 id="g46">
                <path
                   d="m 71.13,256.146 c -4.435,-3.547 -9.224,-8.868 -10.643,-17.737 v 0 c -1.419,-8.869 -0.408,-17.619 4.612,-26.873 v 0 c 2.128,-3.925 4.611,8.87 4.611,8.87 v 0 l 3.038,4.633 c 0,0 -5.454,10.975 1.53,21.086 v 0 c 5.062,7.328 11.219,10.465 21.506,10.465 v 0 c 13.23,0 22.751,-10.074 30.333,-20.044 v 0 c 16.839,-22.143 33.332,-37.66 52.874,-39.643 v 0 c 19.148,-1.942 30.848,7.893 35.992,22.792 v 0 c 4.622,13.389 -2.129,26.43 -2.129,26.43 v 0 l -9.401,-9.402 c 0,0 7.982,-14.366 -2.838,-24.654 v 0 c -7.462,-7.097 -20.93,-11.176 -37.071,-2.661 v 0 c -16.142,8.513 -21.108,16.496 -29.446,26.783 v 0 c -8.336,10.288 -13.835,20.133 -28.202,25.1 v 0 c -3.965,1.37 -8.351,2.107 -12.801,2.108 v 0 c -7.749,0 -15.693,-2.235 -21.965,-7.253"
                   style="fill:url(#linearGradient1066);stroke:none"
                   id="path60" />
              </g>
            </g>
          </g>
        </g>
        <g
           id="g62">
          <g
             id="g64">
            <g
               id="g70">
              <g
                 id="g72">
                <path
                   d="m 144.387,249.85 c -6.918,-6.563 -21.109,-23.414 -28.735,-28.735 v 0 c -7.628,-5.322 -17.384,-10.821 -30.332,-7.096 v 0 c -10.647,3.063 -13.856,13.674 -14.662,17.352 v 0 c -3.159,-2.149 -6.472,-4.192 -9.863,-6.086 v 0 c 0.979,-9.216 4.99,-19.092 15.301,-25.102 v 0 c 22.527,-13.125 44.699,1.597 57.826,12.418 v 0 c 13.125,10.819 22.88,30.331 41.15,34.588 v 0 c 18.27,4.258 27.972,-7.257 30.101,-14.886 v 0 c 0.383,-1.375 0.923,-3.327 1.151,-4.731 v 0 c 3.209,0.241 6.118,0.902 9.349,0.985 v 0 c 0.118,1.577 0.134,3.346 0.019,5.329 v 0 c -1.064,18.447 -13.303,29.089 -31.041,31.395 v 0 c -1.615,0.21 -3.214,0.308 -4.789,0.309 v 0 c -15.72,0 -29.188,-9.775 -35.475,-15.74"
                   style="fill:url(#linearGradient1068);stroke:none"
                   id="path90" />
              </g>
            </g>
          </g>
        </g>
      </g>
    </g>
    <g
       id="g1064"
       transform="matrix(0.35277777,0,0,-0.35277777,168.43457,269.50803)">
      <g
         id="g1062"
         transform="matrix(2.6365288,0,0,2.6365288,-500.93496,-388.37165)">
        <g
           id="g1050">
          <g
             id="g1048">
            <g
               id="g1046">
              <g
                 id="g1044">
                <path
                   d="m 71.13,256.146 c -4.435,-3.547 -9.224,-8.868 -10.643,-17.737 v 0 c -1.419,-8.869 -0.408,-17.619 4.612,-26.873 v 0 c 2.128,-3.925 4.611,8.87 4.611,8.87 v 0 l 3.038,4.633 c 0,0 -5.454,10.975 1.53,21.086 v 0 c 5.062,7.328 11.219,10.465 21.506,10.465 v 0 c 13.23,0 22.751,-10.074 30.333,-20.044 v 0 c 16.839,-22.143 33.332,-37.66 52.874,-39.643 v 0 c 19.148,-1.942 30.848,7.893 35.992,22.792 v 0 c 4.622,13.389 -2.129,26.43 -2.129,26.43 v 0 l -9.401,-9.402 c 0,0 7.982,-14.366 -2.838,-24.654 v 0 c -7.462,-7.097 -20.93,-11.176 -37.071,-2.661 v 0 c -16.142,8.513 -21.108,16.496 -29.446,26.783 v 0 c -8.336,10.288 -13.835,20.133 -28.202,25.1 v 0 c -3.965,1.37 -8.351,2.107 -12.801,2.108 v 0 c -7.749,0 -15.693,-2.235 -21.965,-7.253"
                   style="fill:url(#linearGradient1070);stroke:none"
                   id="path1042" />
              </g>
            </g>
          </g>
        </g>
        <g
           id="g1060">
          <g
             id="g1058">
            <g
               id="g1056">
              <g
                 id="g1054">
                <path
                   d="m 144.387,249.85 c -6.918,-6.563 -21.109,-23.414 -28.735,-28.735 v 0 c -7.628,-5.322 -17.384,-10.821 -30.332,-7.096 v 0 c -10.647,3.063 -13.856,13.674 -14.662,17.352 v 0 c -3.159,-2.149 -6.472,-4.192 -9.863,-6.086 v 0 c 0.979,-9.216 4.99,-19.092 15.301,-25.102 v 0 c 22.527,-13.125 44.699,1.597 57.826,12.418 v 0 c 13.125,10.819 22.88,30.331 41.15,34.588 v 0 c 18.27,4.258 27.972,-7.257 30.101,-14.886 v 0 c 0.383,-1.375 0.923,-3.327 1.151,-4.731 v 0 c 3.209,0.241 6.118,0.902 9.349,0.985 v 0 c 0.118,1.577 0.134,3.346 0.019,5.329 v 0 c -1.064,18.447 -13.303,29.089 -31.041,31.395 v 0 c -1.615,0.21 -3.214,0.308 -4.789,0.309 v 0 c -15.72,0 -29.188,-9.775 -35.475,-15.74"
                   style="fill:url(#linearGradient1072);stroke:none"
                   id="path1052" />
              </g>
            </g>
          </g>
        </g>
      </g>
    </g>
  </g>
</svg>
