<?xml version="1.0" encoding="UTF-8" standalone="no"?>
<svg
   version="1.1"
   height="568.88px"
   width="588.42px"
   id="svg4"
   sodipodi:docname="pi.svg"
   inkscape:version="1.2.1 (9c6d41e410, 2022-07-14, custom)"
   inkscape:export-filename="pi.png"
   inkscape:export-xdpi="72.7684"
   inkscape:export-ydpi="72.7684"
   xmlns:inkscape="http://www.inkscape.org/namespaces/inkscape"
   xmlns:sodipodi="http://sodipodi.sourceforge.net/DTD/sodipodi-0.dtd"
   xmlns="http://www.w3.org/2000/svg"
   xmlns:svg="http://www.w3.org/2000/svg">
  <defs
     id="defs8" />
  <sodipodi:namedview
     id="namedview6"
     pagecolor="#505050"
     bordercolor="#ffffff"
     borderopacity="1"
     inkscape:showpageshadow="0"
     inkscape:pageopacity="0"
     inkscape:pagecheckerboard="1"
     inkscape:deskcolor="#505050"
     showgrid="false"
     inkscape:zoom="1.8053016"
     inkscape:cx="294.13367"
     inkscape:cy="284.99393"
     inkscape:window-width="3440"
     inkscape:window-height="1440"
     inkscape:window-x="0"
     inkscape:window-y="0"
     inkscape:window-maximized="1"
     inkscape:current-layer="svg4" />
  <path
     style="fill:#4c2582;stroke:none;fill-opacity:1"
     d="M 10.499686,177.03840 L 31.174931,178.56990 C 52.615925,154.32116 61.039171,82.595924 187.38789,96.634671 C 182.79339,403.95560 48.021426,436.37234 56.444675,499.41907 C 59.507674,535.15406 87.840417,557.10556 118.47041,558.38181 C 215.21014,555.06356 210.87089,424.63084 240.99038,95.868921 L 365.80760,95.868921 C 359.17110,211.75239 341.04836,327.63586 339.00636,441.22208 C 340.53786,516.77606 386.48285,557.10556 446.97708,557.61606 C 546.52456,560.93431 577.92030,444.79558 577.92030,395.27709 L 556.47931,395.27710 C 554.43731,436.11709 534.78306,465.47083 492.92207,467.25758 C 378.82535,468.78908 441.61683,266.63113 442.38258,97.400421 L 577.92030,98.166171 L 577.15455,11.636437 C 13.807491,8.9075799 85.312284,-2.1366151 10.499686,177.03840 z"
     id="path2" />
</svg>
