<?xml version="1.0" encoding="UTF-8" standalone="no"?>
<!-- Created with Inkscape (http://www.inkscape.org/) -->

<svg
   version="1.1"
   id="svg1"
   width="476.8071"
   height="377.83359"
   viewBox="0 0 476.8071 377.83359"
   sodipodi:docname="tienda-iglu.svg"
   inkscape:version="1.3.2 (091e20ef0f, 2023-11-25, custom)"
   xmlns:inkscape="http://www.inkscape.org/namespaces/inkscape"
   xmlns:sodipodi="http://sodipodi.sourceforge.net/DTD/sodipodi-0.dtd"
   xmlns="http://www.w3.org/2000/svg"
   xmlns:svg="http://www.w3.org/2000/svg">
  <defs
     id="defs1" />
  <sodipodi:namedview
     id="namedview1"
     pagecolor="#505050"
     bordercolor="#ffffff"
     borderopacity="1"
     inkscape:showpageshadow="0"
     inkscape:pageopacity="0"
     inkscape:pagecheckerboard="1"
     inkscape:deskcolor="#d1d1d1"
     inkscape:zoom="1.0708333"
     inkscape:cx="237.19845"
     inkscape:cy="164.35798"
     inkscape:window-width="3440"
     inkscape:window-height="1440"
     inkscape:window-x="0"
     inkscape:window-y="0"
     inkscape:window-maximized="0"
     inkscape:current-layer="g1" />
  <g
     inkscape:groupmode="layer"
     inkscape:label="Image"
     id="g1"
     transform="translate(-2.790484,-74.419748)">
    <path
       style="fill:#80b3ff;stroke:none"
       d="m 18.565414,367.87257 h -2 l -7.0000001,-17 c -14.08028,2.62836 -3.28767,29.13876 6.0000001,32.5 2.38525,0.86322 4.57759,-0.35333 6.91667,0.0555 10.55463,1.84503 22.11111,4.53321 33.08333,6.66669 21.00631,4.08453 42.08381,8.56702 62.999956,13.16666 21.4519,4.7174 42.895,9.9909 64,16 12.1486,3.45895 23.7141,8.87231 36,11.97222 14.3441,3.61921 29.2616,8.52604 43,14.02778 6.8237,2.73263 13.9556,8.08053 21,3.61111 1.6081,3.35257 4.1769,5.08649 6,1 l 2,2 c 6.7149,-6.74323 11.4802,-15.05017 18.0278,-22 36.894,-39.16024 73.8026,-78.48385 116.9722,-110.86107 11.2192,-8.41434 22.6017,-18.57502 35,-25.13889 l 1,4 c 6.2272,-2.44037 13.8949,-16.75574 16.5834,-23 1.0474,-2.4328 2.9716,-8.41333 -0.6945,-9.63889 -8.0296,-2.68425 -11.1619,10.43425 -16.8889,12.63889 -2.0278,-8.32091 -7.1592,-16.24387 -10.75,-24 -7.0686,-15.26825 -13.5085,-30.78262 -20.6944,-46 -2.0753,-4.39484 -6.082,-10.33066 -7.3611,-14.77777 -1.372,-4.77002 1.612,-6.67191 -1.8056,-12.22223 -14.3535,-23.311 -32.2521,-45.83209 -52.4722,-64.38889 -29.1948,-26.79324 -71.8253,-45.51837 -111.9167,-41.52777 -32.6694,3.25186 -70.1151,23.40152 -95,44.13889 -25.866,21.55505 -46.5487,48.95611 -66.416616,75.77777 -12.91674,17.43759 -27.39599,36.8139 -35.66667,57 -2.15592,5.26192 2.19416,9.54611 -0.16667,15 -14.30355,33.04349 -31.16888,65.78778 -39.75,101 m 314.999956,-266 v 1 l -45,16.25 -27,11.75 c -0.1817,-10.81433 -1.3176,-22.34757 -3.3888,-33 -0.6432,-3.30786 -3.983,-10.59748 -1.8889,-13.66669 2.8163,-4.12781 14.9826,-2.55411 19.2777,-2.30554 20.5728,1.19058 40.5768,9.35721 58,19.97223 m -77,28 -40,-4.91666 -40,-4.08334 c 2.0369,-5.4783 8.2629,-8.54145 13,-11.66666 12.6835,-8.36755 25.5506,-16.18353 40,-21 4.2564,-1.41879 14.8679,-6.69424 18.8889,-3.80557 2.9417,2.11325 3.1593,8.18988 3.9723,11.47223 2.7263,11.0072 4.1388,22.68423 4.1388,34 m 155,79 c -2.9969,-9.6391 -10.4027,-19.31271 -15.6111,-28 -9.8297,-16.39566 -20.1866,-33.05307 -33.4166,-47 -7.5615,-7.97116 -23.543,-16.37778 -27.9723,-26 10.4118,-1.96863 18.5919,6.06549 26,13.02777 17.5785,16.52045 31.9598,36.98129 45.3334,56.97223 5.697,8.51599 20.8225,24.80963 5.6666,31 m -126,188 c 0,-25.40579 -4.4,-51.7171 -6.9166,-77 -3.7391,-37.56445 -4.427,-75.42929 -8.1667,-113 -1.7529,-17.60999 -2.2464,-35.38235 -4,-53 -0.4267,-4.28647 -3.4637,-14.89017 -1.1944,-18.58334 2.4051,-3.91422 10.1891,-6.76035 14.2777,-8.41666 11.9931,-4.85831 23.6893,-9.89643 36,-14 4.7511,-1.58368 11.107,-4.45676 16,-2.05554 8.5624,4.20187 16.3436,13.39914 23,20.05554 24.5196,24.51953 41.0159,56.77106 57.25,87 4.9704,9.25522 10.7391,17.99326 16.1389,27 1.9171,3.19749 6.1299,7.37721 6.8611,11 0.8307,4.11508 -5.478,7.34851 -8.25,9.30556 -9.5543,6.74553 -19.4591,13.82875 -27.9166,21.91667 -26.9968,25.81702 -53.8165,52.11658 -81.0834,77.80554 -7.4582,7.02664 -15.0697,14.34885 -21.9166,21.97223 -3.2975,3.67142 -5.3257,8.23114 -10.0834,10 m -32,-263 -1,6 h 5 c 4.0233,19.54123 3.1034,40.10861 5.0834,60 4.6381,46.59624 6.3627,93.41156 11,140 1.5246,15.31653 2.476,30.6897 4,46 0.5543,5.56866 3.8018,16.96704 1.1944,22 -2.8917,5.58167 -7.7074,2.82379 -12.2778,1.63889 -9.7307,-2.52277 -19.3598,-4.94376 -29,-7.77778 -2.9785,-0.87564 -8.3978,-1.17132 -10.6666,-3.36111 -2.803,-2.70529 -0.4336,-8.17017 -0.3334,-11.5 0.3916,-13.01318 3.0446,-26.25568 5.6112,-39 3.9302,-19.51566 5.8827,-39.35587 8.6111,-59 3.1605,-22.75583 8.4523,-48.80719 -6.6945,-68.91666 -9.8012,-13.01251 -28.231,-17.47738 -43.5278,-19 -6.7746,-0.67434 -13.4875,1.24482 -20,2.7222 -49.0771,11.13327 -70.29173,62.06981 -84.666616,105.19446 -4.43164,13.29492 -9.85624,26.49023 -16.11111,39 -2.08849,4.17697 -4.4126,10.72739 -8.61111,13.27777 -3.97612,2.41528 -19.20475,-0.74808 -23.61112,-2.27777 6.51367,-10.33502 13.57373,-20.76306 18.75,-32 6.22573,-13.51514 9.26498,-28.46466 15.5,-42 16.97418,-36.84845 33.158546,-72.11279 55.749956,-106 8.6687,-13.00293 18.1356,-25.59686 27.6389,-38 3.7825,-4.93665 8.495,-12.43417 14.3611,-15.02777 7.091,-3.1351 22.4651,0.38306 30,1.63888 16.8357,2.80594 36.9882,6.31742 54,6.38889 m -120,26 c -3.5506,14.56973 -17.3531,27.0397 -24.58329,40 -11.752816,21.06735 -20.981626,44.44763 -33.416666,65 -13.33602,-7.06024 -3.61074,-19.65436 3.13889,-29 11.61472,-16.08191 21.965106,-33.54056 33.166666,-50 6.1256,-9.00082 12.3257,-20.056 21.6944,-26 m -35.999956,132 c 1.27785,-11.69727 8.846496,-24.87677 14.611106,-35 17.73385,-31.1423 48.71275,-58.53015 87.38885,-48.86111 11.0456,2.76138 22.0652,6.98138 29.5278,16.08334 12.8099,15.62384 10.4259,36.41463 8.5556,54.77777 -1.6455,16.15506 -3.9909,32.00064 -6.6945,48 -2.9891,17.68924 -6.0429,35.22824 -8.3055,53 -0.433,3.40057 -0.434,15.65088 -5.1111,15.63889 -3.0684,-0.008 -8.3428,-2.3801 -8.8334,-5.66666 -1.6164,-10.83026 5.1501,-27.3898 7.7223,-37.97223 7.2326,-29.75726 14.6662,-62.3414 13.3888,-93 -0.5891,-14.13925 -3.8226,-30.25925 -17.25,-37.75 -30.4606,-16.99313 -72.6498,-1.56995 -88.7222,28.75 -4.8965,9.23709 -8.0227,19.34579 -11.88887,29 -1.2651,3.15912 -2.15847,10.17145 -4.88889,12.27777 -2.13724,1.64874 -6.94148,0.72223 -9.499996,0.72223 m 328.999956,-83 c 7.75,12.72067 16.4677,29.50525 20,44 h -1 l -15.3888,-33 -3.6112,-11 m -4,2 c 7.3582,11.83264 17.183,28.31702 20,42 l -1,1 c -8.5954,-3.19579 -15.4412,-20.24649 -20,-28 -1.5519,-2.6395 -4.8846,-6.72791 -4.7777,-9.91666 0.1005,-3.00015 3.4681,-4.27447 5.7777,-5.08334 m -202,100 c -26.3027,-0.11047 -55.1088,-8.71127 -81,-13.80554 -6.1719,-1.21439 -12.7894,-2.43543 -19,-3.11115 -2.15,-0.23388 -5.8005,0.66156 -7.27774,-1.41665 -1.75464,-2.46854 0.77704,-7.21555 1.61114,-9.66666 3.1041,-9.12233 6.6387,-18.17426 10.5,-27 14.4621,-33.05634 74.2043,-56.41748 95.5555,-17 4.3318,7.99715 4.6111,18.16724 4.6111,27 0,14.62314 -2.2854,30.64322 -5,45 m 227,-57 10,22 h -1 c -3.2228,-4.76418 -11.2873,-16.33788 -9,-22 m -3,5 3,5 -3,-5 m -378.999956,4 -5.55555,14 -19.75,45 -12.69445,36 h -1 l 7.55556,-27 19.22222,-46 12.22222,-22 m 240.999956,152 c -2.0046,-5.09225 -11.5675,-4.74109 -14.4166,0.0278 -1.6489,2.75989 -1.42,8.73172 -1.5834,11.9722 h -2 c 0,-6.81671 -3.1568,-16.55734 -1.2777,-23 3.7859,-12.98007 20.8974,-25.10767 30.2777,-34.02777 25.1465,-23.91266 49.7836,-48.15668 75,-71.97223 10.6339,-10.04309 21.886,-19.14514 34,-27.33333 3.0525,-2.06326 8.8512,-8.78175 12.9167,-6.91667 3.3416,1.53302 14.0516,14.38495 12.3333,18.02777 -1.9108,4.05097 -8.8419,7.77893 -12.25,10.61112 -9.7865,8.13278 -19.3619,16.5339 -29,24.83334 -16.5637,14.26324 -31.646,30.32739 -48,44.69446 -7.9361,6.97186 -16.5031,12.73694 -24,20.4722 l -22,22.61111 c -3.2334,3.32578 -5.753,8.08557 -10,10 m -232.999956,-146 v 1 c -10.68421,15.50519 -16.19411,36.6803 -23.61111,54 -2.61682,6.11063 -7.17509,17.13965 -13.38889,20 5.39486,-27.91248 21.08073,-51.76904 31,-78 l 6,3 m 399.999956,4 -7,10 5,-10 h 2 m -367.99996,23 c -1.94487,15.96136 -11.420306,32.30536 -17.611106,47 -2.5106,5.95923 -4.65282,15.21643 -9.80555,19.5 -3.03127,2.51996 -7.12575,0.86319 -10.58334,0.5 l 7.75,-17 19.25,-50 h 10.999996 m 97.99996,95 -52,-13.58334 -68.999956,-11.41666 c 5.96907,-15.11316 15.01653,-29.24707 19.611106,-45 1.64332,-5.63422 3.94124,-19.75891 8.86111,-23.27777 3.92184,-2.80505 14.00564,0.94641 18.52774,1.25 21.8108,1.46411 43.5956,7.57226 65,11.83331 4.5101,0.89786 20.6916,2.09155 23.2778,5.5278 3.2602,4.33179 -1.2839,16.00626 -2.4166,20.66666 -4.2708,17.57123 -9.9736,36.03058 -11.8612,54 m 72,-82 c 0,29.68958 5.074,60.45306 8.0834,90 1.3889,13.6369 6.7371,29.62848 2.9166,43 h -1 l -8.2222,-92 -2.7778,-30 1,-11 m -266.9999561,51 11.0000001,20 c -6.17869,-2.29718 -14.8744401,-13.27539 -11.0000001,-20 m 273.9999561,85 c -17.0627,-5.95047 -33.5689,-14.91919 -51,-20.52777 -48.3889,-15.56961 -97.7317,-25.3584 -146.999956,-37.33334 -13.26647,-3.22449 -26.52516,-5.96232 -40,-8.08335 -5.79089,-0.9115 -13.49806,-0.26221 -18.91666,-2.38885 -3.51242,-1.37854 -3.2982,-5.90332 -1.44445,-8.58338 3.81559,-5.51632 12.53609,-5.08331 18.36111,-5.08331 16.49162,0 33.69234,4.89319 50,7.61111 44.841256,7.47355 87.624356,17.7634 130.999956,30.91666 11.8517,3.59393 24.0234,6.70105 36,10.08334 5.6582,1.5979 15.2486,3.20139 19.6667,7.25 4.6321,4.24469 3.3333,20.22358 3.3333,26.13889 m 17,-26 -7,18 c -2.7535,-5.0094 0.9599,-17.22229 7,-18 z"
       id="path2"
       inkscape:export-filename="tienda-iglu.png"
       inkscape:export-xdpi="72.7684"
       inkscape:export-ydpi="72.7684" />
  </g>
</svg>
